# AST/ASF file generated using VICON BodyLanguage
# -----------------------------------------------
:version 1.10
:name VICON
:units
  mass 1.0
  length 0.45
  angle deg
:documentation
   .ast/.asf automatically generated from VICON data using
   VICON BodyBuilder and BodyLanguage model FoxedUp or BRILLIANT.MOD
:root
   order TX TY TZ RX RY RZ
   axis XYZ
   position 0 0 0  
   orientation 0 0 0 
:bonedata
  begin
     id 1 
     name lhipjoint
     direction 0.70531 -0.63749 0.310071 
     length 2.59589 
     axis 0 0 0  XYZ
  end
  begin
     id 2 
     name lfemur
     direction 0.34202 -0.939693 0  
     length 6.19797  
     axis 0 0 20  XYZ
    dof rx ry rz
    limits (-160.0 20.0)
           (-70.0 70.0)
           (-60.0 70.0)
  end
  begin
     id 3 
     name ltibia
     direction 0.34202 -0.939693 0   
     length 7.80054   
     axis 0 0 20   XYZ
    dof rx
    limits (-10.0 170.0)
  end
  begin
     id 4 
     name lfoot
     direction 0.0828572 -0.227648 0.970212   
     length 1.88124   
     axis -90 7.62852e-016 20   XYZ
    dof rx rz
    limits (-45.0 90.0)
           (-70.0 20.0)
  end
  begin
     id 5 
     name ltoes
     direction 1.53544e-011 -4.219e-011 1   
     length 0.948015   
     axis -90 7.62852e-016 20   XYZ
    dof rx
    limits (-90.0 20.0)
  end
  begin
     id 6 
     name rhipjoint
     direction -0.730062 -0.614543 0.29891   
     length 2.69282  
     axis 0 0 0  XYZ 
  end
  begin
     id 7 
     name rfemur
     direction -0.34202 -0.939693 0   
     length 5.86298   
     axis 0 0 -20   XYZ
    dof rx ry rz
    limits (-160.0 20.0)
           (-70.0 70.0)
           (-70.0 60.0)
  end
  begin
     id 8 
     name rtibia
     direction -0.34202 -0.939693 0   
     length 7.72374   
     axis 0 0 -20   XYZ
    dof rx
    limits (-10.0 170.0)
 end
 begin
     id 9 
     name rfoot
     direction -0.0967421 -0.265797 0.959163   
     length 2.02368  
     axis -90 -7.62852e-016 -20   XYZ
    dof rx rz
    limits (-45.0 90.0)
           (-20.0 70.0)
  end
  begin
     id 10 
     name rtoes
     direction -1.53524e-011 -4.21768e-011 1   
     length 1.01373   
     axis -90 -7.62852e-016 -20   XYZ
    dof rx
    limits (-90.0 20.0)
  end
  begin
     id 11 
     name lowerback
     direction 0.00561702 0.992801 -0.119643   
     length 2.02816   
     axis 0 0 0   XYZ
    dof rx ry rz
    limits (-20.0 45.0)
           (-30.0 30.0)
           (-30.0 30.0)
  end
  begin
     id 12 
     name upperback
     direction 0.00155544 0.995735 -0.0922509   
     length 2.02265   
     axis 0 0 0   XYZ
    dof rx ry rz
    limits (-20.0 45.0)
           (-30.0 30.0)
           (-30.0 30.0)
  end
  begin
     id 13 
     name thorax
     direction -0.000937535 0.999317 -0.0369292   
     length 2.04823   
     axis 0 0 0   XYZ
    dof rx ry rz
    limits (-20.0 45.0)
           (-30.0 30.0)
           (-30.0 30.0)
  end
  begin
     id 14 
     name lowerneck
     direction -0.0813151 0.981659 0.172436   
     length 1.8875   
     axis 0 0 0   XYZ
    dof rx ry rz
    limits (-20.0 45.0)
           (-30.0 30.0)
           (-30.0 30.0)
  end
  begin
     id 15 
     name upperneck
     direction 0.119359 0.955672 -0.269157   
     length 1.92801   
     axis 0 0 0   XYZ
    dof rx ry rz
    limits (-20.0 45.0)
           (-30.0 30.0)
           (-30.0 30.0)
  end
  begin
     id 16
     name head
     direction 0.0421007 0.992672 -0.113268  
     length 1.95809  
     axis 0 0 0   XYZ
    dof rx ry rz
    limits (-20.0 45.0)
           (-30.0 30.0)
           (-30.0 30.0)
  end
  begin
     id 17 
     name lclavicle
     direction 0.944093 0.32865 -0.0260136  
     length 3.84992  
     axis 0 0 0   XYZ
    dof ry rz
    limits (-20.0 10.0)
           (0.0 20.0)
  end
  begin
     id 18 
     name lhumerus
     direction 1 -4.48979e-011 -1.27712e-029   
     length 5.53593   
     axis 180 -30 -90   XYZ
    dof rx ry rz
    limits (-60.0 90.0)
           (-90.0 90.0)
           (-90.0 90.0)
  end
  begin
     id 19
     name lradius
     direction 1 -4.48966e-011 1.00051e-028   
     length 3.13345   
     axis 180 -30 -90   XYZ
    dof rx
    limits (-10.0 170.0)
  end
  begin
     id 20
     name lwrist
     direction 1 -4.4896e-011 2.56952e-028   
     length 1.56673   
     axis -5.12785e-016 90 90   XYZ
    dof ry
    limits (-180.0 0.0)
 end
  begin
     id 21 
     name lhand
     direction 1 -4.48934e-011 5.13905e-028   
     length 0.713374   
     axis -3.27915e-016 90 90   XYZ
    dof rx rz
    limits (-90.0 90.0)
           (-45.0 45.0)
  end
  begin
     id 22 
     name lfingers
     direction 1 -4.48973e-011 1.02781e-027   
     length 0.575141   
     axis -6.5583e-016 90 90   XYZ
    dof rx
    limits (0.0 90.0)
  end
  begin
     id 23
     name lthumb
     direction 0.707107 -6.34883e-011 0.707107   
     length 0.82579   
     axis -90 45 2.85299e-015   XYZ
    dof rx rz
    limits (-45.0 45.0)
           (-45.0 45.0)
  end
  begin
     id 24 
     name rclavicle
     direction -0.936895 0.34884 0.0232243   
     length 3.53304  
     axis 0 0 0   XYZ 
    dof ry rz
    limits (-10.0 20.0)
           (-20.0 0.0)
  end
  begin
     id 25 
     name rhumerus
     direction -1 -4.48965e-011 1.05514e-027  
     length 5.4685   
     axis 180 30 90   XYZ
    dof rx ry rz
    limits (-90.0 60.0)
           (-90.0 90.0)
           (-90.0 90.0)
  end
  begin
     id 26 
     name rradius
     direction -1 -4.48964e-011 -1.1079e-027   
     length 3.22411   
     axis 180 30 90   XYZ
    dof rx
    limits (-10.0 170.0)
  end
  begin
     id 27 
     name rwrist
     direction -1 -4.48973e-011 2.56952e-028   
     length 1.61206   
     axis -5.12785e-016 -90 -90   XYZ
    dof ry
    limits (-180.0 0.0)
  end
  begin
     id 28
     name rhand
     direction -1 -4.48957e-011 5.13905e-028   
     length 0.74528   
     axis -3.27915e-016 -90 -90   XYZ
    dof rx rz
    limits (-90.0 90.0)
           (-45.0 45.0)
  end
  begin
     id 29
     name rfingers
     direction -1 -4.4901e-011 1.02781e-027   
     length 0.600864   
     axis -6.5583e-016 -90 -90   XYZ
    dof rx
    limits (0.0 90.0)
  end
  begin
     id 30
     name rthumb
     direction -0.707107 -6.34972e-011 0.707107   
     length 0.862724   
     axis -90 -45 -2.85299e-015   XYZ
    dof rx rz
    limits (-45.0 45.0)
           (-45.0 45.0)
  end
:hierarchy
  begin
    root lhipjoint rhipjoint lowerback
    lhipjoint lfemur
    lfemur ltibia
    ltibia lfoot
    lfoot ltoes
    rhipjoint rfemur
    rfemur rtibia
    rtibia rfoot
    rfoot rtoes
    lowerback upperback
    upperback thorax
    thorax lowerneck lclavicle rclavicle
    lowerneck upperneck
    upperneck head
    lclavicle lhumerus
    lhumerus lradius
    lradius lwrist
    lwrist lhand lthumb
    lhand lfingers
    rclavicle rhumerus
    rhumerus rradius
    rradius rwrist
    rwrist rhand rthumb
    rhand rfingers
  end

#!OML:ASF G:\Work\Work\Patient Classification 1\Liu\Session 1\Liu.ASF
:FULLY-SPECIFIED
:DEGREES
357
root -0.826135 15.4975 -37.2357 -343.217 -43.3538 -5.50919
lowerback 5.1568 -3.24263 3.45281
upperback 0.959632 -4.08988 3.14514
thorax -1.90774 -2.06484 1.58228
lowerneck -24.9451 9.53411 0.210504
upperneck 21.4301 14.9927 -6.47459
head 11.6625 5.8662 0.172846
rclavicle 1.86361e-014 -7.95139e-016
rhumerus -62.6922 24.376 -84.967
rradius 88.6203
rwrist -10.9844
rhand -25.6095 35.5416
rfingers 7.12502
rthumb 0.922879 5.56386
lclavicle 1.86361e-014 -7.95139e-016
lhumerus -41.1508 -40.2216 98.2333
lradius 104.071
lwrist 28.534
lhand -21.0673 29.9599
lfingers 7.12502
lthumb 5.30932 59.8734
rfemur -29.7649 1.37365 11.564
rtibia 40.3705
rfoot -13.2595 8.4713
rtoes 17.1043
lfemur -18.9495 5.43191 -32.4784
ltibia 61.9001
lfoot 4.85671 4.41941
ltoes 11.4527
358
root -0.9774 15.4053 -37.1691 -343.758 -42.291 -5.38908
lowerback 5.72313 -3.16754 3.61039
upperback 1.09086 -3.95389 3.09966
thorax -2.10216 -1.9983 1.46926
lowerneck -24.8407 9.17844 -0.0726205
upperneck 21.1115 14.5238 -6.34861
head 11.4718 5.67512 0.163158
rclavicle -2.98177e-016 1.96797e-014
rhumerus -62.3424 24.7556 -84.5725
rradius 88.9281
rwrist -11.1441
rhand -25.5553 35.4894
rfingers 7.12502
rthumb 0.975271 5.51192
lclavicle -2.98177e-016 1.96797e-014
lhumerus -41.5842 -40.2454 98.3386
lradius 104.044
lwrist 27.4571
lhand -22.2675 30.1027
lfingers 7.12502
lthumb 4.15043 60.042
rfemur -28.6172 0.0787238 11.8086
rtibia 41.1084
rfoot -13.725 10.5657
rtoes 19.2203
lfemur -19.5675 6.16338 -32.3285
ltibia 65.1615
lfoot 3.14478 7.20735
ltoes 14.5783
359
root -1.13287 15.309 -37.0914 -344.275 -41.149 -5.66573
lowerback 6.07197 -3.22493 4.40949
upperback 1.57693 -3.98719 2.84846
thorax -1.86598 -2.01274 0.774978
lowerneck -25.1168 9.02767 -0.0852885
upperneck 20.8182 14.2028 -6.02487
head 11.367 5.58516 0.227156
rclavicle -6.41081e-015 -1.30204e-014
rhumerus -61.4979 25.1206 -84.5209
rradius 89.1219
rwrist -10.9414
rhand -25.9119 35.2667
rfingers 7.12502
rthumb 0.63085 5.2879
lclavicle -6.41081e-015 -1.30204e-014
lhumerus -41.5456 -40.2495 97.7535
lradius 103.896
lwrist 25.5013
lhand -23.3787 31.6057
lfingers 7.12502
lthumb 3.07738 61.5632
rfemur -27.0125 -1.33708 12.4411
rtibia 41.5202
rfoot -14.8442 12.1689
rtoes 18.1179
lfemur -19.8346 6.90551 -31.7519
ltibia 68.391
lfoot -0.351707 9.91137
ltoes 18.7156
360
root -1.27174 15.2393 -37.081 -342.995 -39.4687 -5.88857
lowerback 4.82865 -2.53058 6.05808
upperback 2.05637 -3.10261 1.19285
thorax -0.834914 -1.53787 -1.98461
lowerneck -26.7338 8.42149 2.67823
upperneck 20.7461 12.1913 -5.62012
head 11.7097 4.9242 -0.347069
rclavicle -8.15017e-015 -5.36719e-015
rhumerus -59.7929 21.2276 -85.7488
rradius 89.0265
rwrist -10.1526
rhand -26.2305 35.0348
rfingers 7.12502
rthumb 0.32309 5.05529
lclavicle -8.15017e-015 -5.36719e-015
lhumerus -39.9832 -44.2335 94.2783
lradius 104.401
lwrist 25.2482
lhand -22.6353 36.7011
lfingers 7.12502
lthumb 3.79527 66.6471
rfemur -27.5632 -2.58153 13.4452
rtibia 41.922
rfoot -16.267 12.5559
rtoes 14.2636
lfemur -23.2083 6.92686 -30.9722
ltibia 72.3266
lfoot -3.83659 11.7567
ltoes 17.7285
361
root -1.40787 15.1611 -36.9316 -343.432 -38.0027 -6.75434
lowerback 5.43058 -2.52131 7.55516
upperback 2.54337 -2.99726 1.38296
thorax -0.715957 -1.46776 -2.61214
lowerneck -27.1771 7.97713 2.40882
upperneck 20.64 11.6541 -5.5945
head 11.7073 4.65887 -0.384345
rclavicle 9.50688e-014 -4.90998e-014
rhumerus -58.8806 21.5986 -84.9209
rradius 89.1993
rwrist -10.048
rhand -25.744 34.911
rfingers 7.12502
rthumb 0.793021 4.93269
lclavicle 9.50688e-014 -4.90998e-014
lhumerus -38.6889 -43.3088 92.9843
lradius 103.26
lwrist 29.011
lhand -20.372 31.1482
lfingers 7.12502
lthumb 5.98067 61.0438
rfemur -25.1964 -4.03667 14.4603
rtibia 41.9029
rfoot -16.9985 13.9682
rtoes 11.9581
lfemur -23.8664 6.92209 -30.09
ltibia 75.9917
lfoot -5.91548 13.4239
ltoes 17.4469
